<?xml version="1.0" encoding="UTF-8" ?>
<!DOCTYPE svg PUBLIC "-//W3C//DTD SVG 1.1//EN" "http://www.w3.org/Graphics/SVG/1.1/DTD/svg11.dtd">
<svg width="1000pt" height="1220pt" viewBox="0 0 1000 1220" version="1.1" xmlns="http://www.w3.org/2000/svg">
<g id="#000000ff">
<path fill="#000000" opacity="1.00" d=" M 500.69 33.59 C 501.17 32.34 501.70 31.12 502.28 29.92 C 510.81 51.68 527.33 69.29 545.71 83.25 C 574.29 104.56 607.50 118.64 641.12 129.90 C 684.17 144.13 728.69 153.40 773.42 160.56 C 808.42 166.04 843.65 169.95 878.94 172.96 C 899.96 173.39 920.98 173.21 942.00 173.59 C 954.67 173.27 967.32 174.19 979.99 174.01 C 980.01 238.67 980.00 303.33 979.99 368.00 C 662.33 368.00 344.68 368.00 27.02 368.00 C 26.98 302.67 27.00 237.34 27.01 172.01 C 48.01 172.25 69.00 171.22 89.99 171.02 C 99.68 171.29 109.31 169.85 119.00 170.02 C 180.97 167.02 243.03 160.99 303.75 147.71 C 341.91 139.26 379.70 128.02 414.97 110.96 C 439.53 98.93 463.15 83.98 481.70 63.65 C 489.52 54.71 496.69 44.87 500.69 33.59 M 90.44 199.59 C 79.56 202.30 68.89 208.23 63.11 218.17 C 56.04 229.50 55.39 244.98 62.62 256.38 C 67.37 264.03 75.23 269.19 83.44 272.50 C 98.83 278.43 115.31 280.71 130.93 285.91 C 136.64 287.97 142.57 290.74 146.16 295.85 C 151.48 303.37 150.14 314.35 143.98 320.99 C 138.35 327.16 129.97 329.85 121.93 331.06 C 107.79 332.80 92.26 330.37 81.15 320.87 C 74.34 314.99 71.93 305.92 70.45 297.40 C 64.39 298.43 58.20 298.32 52.12 299.21 C 52.06 310.31 56.00 321.40 63.02 330.00 C 71.26 340.36 84.07 345.95 96.90 347.97 C 111.20 350.10 126.28 350.19 139.91 344.80 C 149.55 341.08 158.31 334.48 163.35 325.32 C 170.60 312.95 170.73 296.37 162.67 284.35 C 157.51 276.64 149.34 271.54 140.86 268.18 C 126.33 262.66 110.81 260.51 96.00 255.93 C 90.45 254.02 84.30 252.32 80.45 247.57 C 75.01 241.04 75.71 230.60 81.52 224.51 C 86.54 218.59 94.39 216.17 101.87 215.49 C 112.25 214.33 123.49 214.89 132.70 220.29 C 140.51 225.08 144.49 234.15 145.31 243.01 C 151.57 242.76 157.78 241.86 164.04 241.62 C 164.39 225.79 154.78 210.26 140.34 203.67 C 124.88 196.56 106.88 195.65 90.44 199.59 M 251.48 197.66 C 236.89 198.87 222.50 204.64 211.88 214.86 C 201.68 224.05 194.97 236.66 191.85 249.95 C 187.13 270.85 187.99 293.71 197.99 313.00 C 206.26 329.98 222.46 342.62 240.73 347.11 C 264.97 353.11 292.99 346.93 310.23 328.24 C 326.49 310.46 331.30 284.89 328.66 261.54 C 326.58 243.17 318.74 224.70 304.16 212.82 C 289.70 200.65 270.08 195.80 251.48 197.66 M 353.15 200.01 C 353.19 248.95 353.16 297.90 353.17 346.84 C 383.77 346.84 414.38 346.81 444.99 346.85 C 445.01 340.95 445.01 335.05 444.99 329.15 C 420.94 329.19 396.89 329.17 372.84 329.16 C 372.83 286.11 372.81 243.06 372.85 200.01 C 366.28 199.99 359.71 199.99 353.15 200.01 M 470.61 200.00 C 470.61 248.95 470.55 297.90 470.64 346.85 C 477.21 346.81 483.79 346.82 490.36 346.85 C 490.45 297.90 490.39 248.95 490.39 200.00 C 483.80 200.00 477.20 200.00 470.61 200.00 M 523.61 200.00 C 523.61 248.95 523.54 297.90 523.64 346.86 C 530.04 346.80 536.43 346.84 542.84 346.84 C 542.83 326.89 542.83 306.95 542.83 287.00 C 543.00 266.41 542.50 245.79 543.08 225.21 C 543.75 226.53 544.32 227.92 544.80 229.33 C 558.07 268.37 571.27 307.43 584.58 346.46 C 590.46 347.36 596.61 346.59 602.60 346.80 C 616.56 306.14 630.96 265.64 644.81 224.95 C 645.26 265.58 644.86 306.22 645.01 346.85 C 651.34 346.82 657.66 346.82 663.99 346.85 C 664.02 297.90 663.98 248.95 664.01 199.99 C 655.13 200.06 646.25 199.89 637.37 200.08 C 623.25 241.51 608.74 282.81 594.55 324.21 C 581.30 283.07 567.15 242.23 553.58 201.20 C 553.37 200.92 552.94 200.35 552.73 200.07 C 543.02 199.88 533.31 200.07 523.61 200.00 M 734.46 200.12 C 716.11 249.11 697.05 297.85 678.64 346.83 C 685.62 346.83 692.60 346.85 699.58 346.81 C 704.61 332.05 710.29 317.52 715.21 302.73 C 735.16 302.52 755.11 302.69 775.06 302.64 C 776.76 302.25 777.01 304.39 777.58 305.47 C 782.78 319.26 788.11 333.00 793.32 346.79 C 800.87 346.86 808.42 346.85 815.98 346.80 C 796.24 297.88 776.04 249.14 756.50 200.15 C 749.16 199.88 741.80 199.95 734.46 200.12 M 830.61 200.00 C 830.61 248.95 830.55 297.90 830.64 346.86 C 836.98 346.80 843.32 346.86 849.66 346.82 C 849.70 308.88 849.47 270.94 849.78 233.01 C 855.07 239.58 859.25 246.96 864.15 253.82 C 884.87 284.83 905.88 315.65 926.47 346.74 C 933.25 346.94 940.04 346.78 946.84 346.84 C 946.84 297.89 946.81 248.95 946.85 200.01 C 940.56 199.98 934.28 200.01 927.99 199.99 C 927.96 238.10 928.09 276.21 927.93 314.31 C 902.14 276.29 876.69 238.04 850.94 199.99 C 844.16 200.02 837.38 200.00 830.61 200.00 Z" />
<path fill="#000000" opacity="1.00" d=" M 248.41 215.66 C 261.54 212.96 275.95 215.12 286.97 223.02 C 298.30 230.69 304.86 243.71 307.34 256.89 C 309.93 271.06 309.46 285.97 304.90 299.70 C 300.12 314.21 288.13 326.40 273.28 330.45 C 259.22 334.35 243.19 332.43 231.24 323.76 C 221.55 316.97 214.73 306.47 211.88 295.03 C 209.30 285.58 209.36 275.69 209.88 265.98 C 210.87 254.07 213.55 241.69 221.13 232.12 C 228.12 223.88 237.80 217.86 248.41 215.66 Z" />
<path fill="#000000" opacity="1.00" d=" M 740.74 232.72 C 742.35 227.67 743.34 222.44 744.99 217.41 C 752.77 240.61 761.93 263.34 770.37 286.32 C 753.97 286.42 737.57 286.33 721.18 286.37 C 727.42 268.39 735.18 250.93 740.74 232.72 Z" />
<path fill="#000000" opacity="1.00" d=" M 495.48 459.44 C 498.16 455.41 500.35 450.98 503.93 447.63 C 526.04 483.09 547.62 518.88 569.61 554.41 C 570.90 556.49 572.11 558.63 573.21 560.82 C 560.15 561.12 547.08 560.80 534.02 560.98 C 533.98 594.98 534.00 628.99 534.01 662.99 C 567.35 663.00 600.68 663.02 634.02 662.98 C 634.20 649.92 633.87 636.85 634.18 623.78 C 649.10 632.69 663.51 642.46 678.22 651.73 C 696.92 663.71 715.62 675.68 734.31 687.68 C 738.71 690.68 743.65 693.01 747.36 696.93 C 716.64 716.11 685.64 734.84 654.81 753.84 C 647.90 757.90 641.30 762.50 634.18 766.21 C 633.87 752.48 634.20 738.75 634.02 725.02 C 600.68 724.98 567.35 725.00 534.01 725.01 C 533.99 757.01 533.98 789.02 534.02 821.02 C 547.08 821.20 560.15 820.87 573.21 821.18 C 567.32 831.44 560.50 841.15 554.26 851.21 C 537.47 877.42 520.64 903.61 503.89 929.84 C 502.81 931.50 501.45 932.95 500.06 934.36 C 481.40 904.47 463.19 874.30 444.69 844.31 C 440.13 836.56 435.00 829.13 430.79 821.18 C 444.51 820.87 458.25 821.20 471.98 821.02 C 472.02 789.02 472.00 757.02 471.99 725.01 C 437.65 724.99 403.32 724.98 368.98 725.02 C 368.80 738.75 369.13 752.49 368.82 766.22 C 353.28 756.92 338.27 746.75 322.94 737.10 C 304.23 725.11 285.53 713.13 266.83 701.13 C 262.99 698.60 258.80 696.47 255.64 693.07 C 291.09 670.96 326.88 649.38 362.41 627.39 C 364.49 626.09 366.62 624.88 368.82 623.79 C 369.13 636.85 368.80 649.92 368.98 662.98 C 403.32 663.02 437.65 663.00 471.99 662.99 C 472.00 628.98 472.02 594.98 471.98 560.98 C 458.25 560.80 444.51 561.13 430.78 560.82 C 439.69 545.90 449.46 531.49 458.73 516.78 C 470.97 497.66 483.22 478.55 495.48 459.44 Z" />
</g>
<g id="#ffffffff">
<path fill="#ffffff" opacity="1.00" d=" M 90.44 199.59 C 106.88 195.65 124.88 196.56 140.34 203.67 C 154.78 210.26 164.39 225.79 164.04 241.62 C 157.78 241.86 151.57 242.76 145.31 243.01 C 144.49 234.15 140.51 225.08 132.70 220.29 C 123.49 214.89 112.25 214.33 101.87 215.49 C 94.39 216.17 86.54 218.59 81.52 224.51 C 75.71 230.60 75.01 241.04 80.45 247.57 C 84.30 252.32 90.45 254.02 96.00 255.93 C 110.81 260.51 126.33 262.66 140.86 268.18 C 149.34 271.54 157.51 276.64 162.67 284.35 C 170.73 296.37 170.60 312.95 163.35 325.32 C 158.31 334.48 149.55 341.08 139.91 344.80 C 126.28 350.19 111.20 350.10 96.90 347.97 C 84.07 345.95 71.26 340.36 63.02 330.00 C 56.00 321.40 52.06 310.31 52.12 299.21 C 58.20 298.32 64.39 298.43 70.45 297.40 C 71.93 305.92 74.34 314.99 81.15 320.87 C 92.26 330.37 107.79 332.80 121.93 331.06 C 129.97 329.85 138.35 327.16 143.98 320.99 C 150.14 314.35 151.48 303.37 146.16 295.85 C 142.57 290.74 136.64 287.97 130.93 285.91 C 115.31 280.71 98.83 278.43 83.44 272.50 C 75.23 269.19 67.37 264.03 62.62 256.38 C 55.39 244.98 56.04 229.50 63.11 218.17 C 68.89 208.23 79.56 202.30 90.44 199.59 Z" />
<path fill="#ffffff" opacity="1.00" d=" M 251.48 197.66 C 270.08 195.80 289.70 200.65 304.16 212.82 C 318.74 224.70 326.58 243.17 328.66 261.54 C 331.30 284.89 326.49 310.46 310.23 328.24 C 292.99 346.93 264.97 353.11 240.73 347.11 C 222.46 342.62 206.26 329.98 197.99 313.00 C 187.99 293.71 187.13 270.85 191.85 249.95 C 194.97 236.66 201.68 224.05 211.88 214.86 C 222.50 204.64 236.89 198.87 251.48 197.66 M 248.41 215.66 C 237.80 217.86 228.12 223.88 221.13 232.12 C 213.55 241.69 210.87 254.07 209.88 265.98 C 209.36 275.69 209.30 285.58 211.88 295.03 C 214.73 306.47 221.55 316.97 231.24 323.76 C 243.19 332.43 259.22 334.35 273.28 330.45 C 288.13 326.40 300.12 314.21 304.90 299.70 C 309.46 285.97 309.93 271.06 307.34 256.89 C 304.86 243.71 298.30 230.69 286.97 223.02 C 275.95 215.12 261.54 212.96 248.41 215.66 Z" />
<path fill="#ffffff" opacity="1.00" d=" M 353.15 200.01 C 359.71 199.99 366.28 199.99 372.85 200.01 C 372.81 243.06 372.83 286.11 372.84 329.16 C 396.89 329.17 420.94 329.19 444.99 329.15 C 445.01 335.05 445.01 340.95 444.99 346.85 C 414.38 346.81 383.77 346.84 353.17 346.84 C 353.16 297.90 353.19 248.95 353.15 200.01 Z" />
<path fill="#ffffff" opacity="1.00" d=" M 470.61 200.00 C 477.20 200.00 483.80 200.00 490.39 200.00 C 490.39 248.95 490.45 297.90 490.36 346.85 C 483.79 346.82 477.21 346.81 470.64 346.85 C 470.55 297.90 470.61 248.95 470.61 200.00 Z" />
<path fill="#ffffff" opacity="1.00" d=" M 523.61 200.00 C 533.31 200.07 543.02 199.88 552.73 200.07 C 552.94 200.35 553.37 200.92 553.58 201.20 C 567.15 242.23 581.30 283.07 594.55 324.21 C 608.74 282.81 623.25 241.51 637.37 200.08 C 646.25 199.89 655.13 200.06 664.01 199.99 C 663.98 248.95 664.02 297.90 663.99 346.85 C 657.66 346.82 651.34 346.82 645.01 346.85 C 644.86 306.22 645.26 265.58 644.81 224.95 C 630.96 265.64 616.56 306.14 602.60 346.80 C 596.61 346.59 590.46 347.36 584.58 346.46 C 571.27 307.43 558.07 268.37 544.80 229.33 C 544.32 227.92 543.75 226.53 543.08 225.21 C 542.50 245.79 543.00 266.41 542.83 287.00 C 542.83 306.95 542.83 326.89 542.84 346.84 C 536.43 346.84 530.04 346.80 523.64 346.86 C 523.54 297.90 523.61 248.95 523.61 200.00 Z" />
<path fill="#ffffff" opacity="1.00" d=" M 734.46 200.12 C 741.80 199.95 749.16 199.88 756.50 200.15 C 776.04 249.14 796.24 297.88 815.98 346.80 C 808.42 346.85 800.87 346.86 793.32 346.79 C 788.11 333.00 782.78 319.26 777.58 305.47 C 777.01 304.39 776.76 302.25 775.06 302.64 C 755.11 302.69 735.16 302.52 715.21 302.73 C 710.29 317.52 704.61 332.05 699.58 346.81 C 692.60 346.85 685.62 346.83 678.64 346.83 C 697.05 297.85 716.11 249.11 734.46 200.12 M 740.74 232.72 C 735.18 250.93 727.42 268.39 721.18 286.37 C 737.57 286.33 753.97 286.42 770.37 286.32 C 761.93 263.34 752.77 240.61 744.99 217.41 C 743.34 222.44 742.35 227.67 740.74 232.72 Z" />
<path fill="#ffffff" opacity="1.00" d=" M 830.61 200.00 C 837.38 200.00 844.16 200.02 850.94 199.99 C 876.69 238.04 902.14 276.29 927.93 314.31 C 928.09 276.21 927.96 238.10 927.99 199.99 C 934.28 200.01 940.56 199.98 946.85 200.01 C 946.81 248.95 946.84 297.89 946.84 346.84 C 940.04 346.78 933.25 346.94 926.47 346.74 C 905.88 315.65 884.87 284.83 864.15 253.82 C 859.25 246.96 855.07 239.58 849.78 233.01 C 849.47 270.94 849.70 308.88 849.66 346.82 C 843.32 346.86 836.98 346.80 830.64 346.86 C 830.55 297.90 830.61 248.95 830.61 200.00 Z" />
</g>
<g id="#f20025ff">
<path fill="#f20025" opacity="1.00" d=" M 26.02 367.99 L 27.02 368.00 C 344.68 368.00 662.33 368.00 979.99 368.00 C 980.01 447.33 979.99 526.67 980.00 606.00 C 979.88 613.28 980.25 620.57 979.82 627.84 C 978.70 633.55 979.21 639.41 978.17 645.14 C 978.02 655.43 975.99 665.56 974.54 675.72 C 972.91 686.39 971.25 697.05 969.66 707.73 C 967.90 720.58 964.43 733.11 961.81 745.81 C 960.30 753.99 957.09 761.70 954.55 769.59 C 950.20 782.58 945.83 795.58 941.49 808.58 C 939.77 814.22 937.18 819.52 934.90 824.93 C 929.26 837.96 923.65 850.99 918.01 864.02 C 914.99 870.63 912.64 877.58 908.84 883.82 C 897.36 903.35 885.88 922.88 874.47 942.45 C 871.81 947.27 868.01 951.30 864.69 955.65 C 856.24 966.23 847.81 976.81 839.36 987.38 C 835.61 991.94 832.22 996.83 827.95 1000.94 C 819.19 1009.51 810.43 1018.09 801.76 1026.75 C 797.12 1031.12 793.04 1036.14 787.76 1039.78 C 771.77 1051.41 755.95 1063.29 739.91 1074.85 C 722.69 1084.72 705.29 1094.29 688.00 1104.03 C 668.92 1115.15 648.73 1124.13 629.06 1134.10 C 592.17 1150.25 555.04 1165.82 518.30 1182.28 C 512.20 1185.43 506.52 1189.36 500.91 1193.30 C 491.86 1188.36 483.02 1183.04 474.07 1177.91 C 468.13 1174.22 461.56 1171.77 455.25 1168.82 C 412.40 1149.64 369.61 1130.31 326.70 1111.28 C 287.11 1093.81 251.20 1068.78 219.25 1039.75 C 196.71 1019.29 175.60 997.23 156.27 973.72 C 109.07 916.00 74.45 848.44 52.77 777.22 C 39.01 731.98 30.00 685.20 27.03 638.02 C 27.21 633.63 26.90 629.28 26.03 624.99 C 25.97 539.33 25.99 453.66 26.02 367.99 M 495.48 459.44 C 483.22 478.55 470.97 497.66 458.73 516.78 C 449.46 531.49 439.69 545.90 430.78 560.82 C 444.51 561.13 458.25 560.80 471.98 560.98 C 472.02 594.98 472.00 628.98 471.99 662.99 C 437.65 663.00 403.32 663.02 368.98 662.98 C 368.80 649.92 369.13 636.85 368.82 623.79 C 366.62 624.88 364.49 626.09 362.41 627.39 C 326.88 649.38 291.09 670.96 255.64 693.07 C 258.80 696.47 262.99 698.60 266.83 701.13 C 285.53 713.13 304.23 725.11 322.94 737.10 C 338.27 746.75 353.28 756.92 368.82 766.22 C 369.13 752.49 368.80 738.75 368.98 725.02 C 403.32 724.98 437.65 724.99 471.99 725.01 C 472.00 757.02 472.02 789.02 471.98 821.02 C 458.25 821.20 444.51 820.87 430.79 821.18 C 435.00 829.13 440.13 836.56 444.69 844.31 C 463.19 874.30 481.40 904.47 500.06 934.36 C 501.45 932.95 502.81 931.50 503.89 929.84 C 520.64 903.61 537.47 877.42 554.26 851.21 C 560.50 841.15 567.32 831.44 573.21 821.18 C 560.15 820.87 547.08 821.20 534.02 821.02 C 533.98 789.02 533.99 757.01 534.01 725.01 C 567.35 725.00 600.68 724.98 634.02 725.02 C 634.20 738.75 633.87 752.48 634.18 766.21 C 641.30 762.50 647.90 757.90 654.81 753.84 C 685.64 734.84 716.64 716.11 747.36 696.93 C 743.65 693.01 738.71 690.68 734.31 687.68 C 715.62 675.68 696.92 663.71 678.22 651.73 C 663.51 642.46 649.10 632.69 634.18 623.78 C 633.87 636.85 634.20 649.92 634.02 662.98 C 600.68 663.02 567.35 663.00 534.01 662.99 C 534.00 628.99 533.98 594.98 534.02 560.98 C 547.08 560.80 560.15 561.12 573.21 560.82 C 572.11 558.63 570.90 556.49 569.61 554.41 C 547.62 518.88 526.04 483.09 503.93 447.63 C 500.35 450.98 498.16 455.41 495.48 459.44 M 111.10 599.84 C 111.05 602.53 111.14 605.24 110.85 607.94 C 109.14 617.12 100.57 623.41 99.94 632.97 C 98.07 638.84 99.64 645.08 102.79 650.19 C 104.23 652.40 106.68 653.87 107.86 656.22 C 108.25 661.59 108.03 667.01 107.83 672.40 C 104.78 668.94 103.20 664.40 99.74 661.28 C 95.35 657.20 89.85 654.49 85.77 650.04 C 84.56 650.01 83.35 649.98 82.14 649.96 C 80.20 654.24 81.92 658.96 82.78 663.30 C 87.47 674.63 100.83 677.84 107.72 687.39 C 108.10 693.36 107.95 699.43 109.88 705.22 C 107.11 702.97 104.74 700.28 101.95 698.08 C 96.26 695.03 89.25 695.00 84.04 690.94 C 81.02 688.93 78.94 685.90 76.55 683.24 C 72.10 681.65 72.62 687.96 73.36 690.62 C 74.81 696.50 76.25 702.83 80.87 707.13 C 87.52 713.27 96.37 716.07 104.59 719.41 C 107.78 721.02 111.55 722.26 113.54 725.42 C 115.34 733.29 117.87 740.98 120.99 748.43 C 116.08 744.81 111.76 739.93 105.58 738.52 C 97.63 736.78 89.44 734.98 82.63 730.31 C 79.80 728.33 77.62 725.11 73.97 724.69 C 74.07 733.44 77.53 742.17 82.90 749.05 C 87.61 755.09 94.91 758.02 102.08 760.00 C 110.60 763.48 120.16 762.90 128.71 766.26 C 131.29 772.04 134.51 777.52 137.26 783.23 C 133.71 782.75 131.20 779.81 127.67 779.24 C 119.96 777.35 111.94 777.05 104.03 776.88 C 97.44 775.65 93.30 769.36 86.94 767.70 C 86.35 773.28 90.00 777.86 92.77 782.32 C 99.61 791.89 108.90 800.18 120.37 803.58 C 131.85 804.96 144.18 805.32 154.23 811.77 C 157.81 815.64 160.58 820.21 163.39 824.67 C 165.80 828.26 168.94 831.31 171.14 835.05 C 167.62 833.93 164.35 832.14 160.77 831.22 C 151.26 829.49 141.59 829.02 131.99 828.01 C 124.01 827.85 115.73 825.75 109.63 820.36 C 108.21 818.75 105.34 818.22 104.04 820.27 C 104.10 824.85 107.53 828.48 109.60 832.36 C 114.51 841.31 121.37 849.71 130.74 854.20 C 135.74 855.74 140.68 857.96 145.99 858.07 C 151.36 858.34 156.59 859.86 161.97 859.97 C 167.35 859.89 172.61 861.44 178.00 861.02 C 184.81 860.69 192.71 861.00 197.76 866.24 C 202.07 871.28 206.23 876.45 210.50 881.54 C 214.18 885.96 218.63 889.69 222.20 894.22 C 216.39 891.52 210.62 887.90 204.00 887.92 C 201.00 887.81 198.07 886.87 195.05 887.07 C 185.46 888.83 175.67 887.64 165.98 888.05 C 160.57 888.57 155.69 885.90 150.76 884.16 C 147.37 882.29 143.84 880.43 139.83 880.92 C 139.91 882.17 140.07 883.42 140.31 884.67 C 146.61 895.28 154.93 904.96 165.57 911.40 C 171.37 914.56 177.81 916.29 184.21 917.77 C 191.45 918.37 198.74 917.82 206.00 918.00 C 214.67 917.79 223.39 918.57 232.00 917.32 C 238.00 918.59 245.00 916.55 250.03 920.93 C 259.21 928.89 268.38 936.89 277.27 945.19 C 275.87 944.86 274.47 944.49 273.21 943.79 C 269.44 941.66 265.07 941.12 260.94 940.06 C 254.10 938.25 246.97 939.24 239.99 938.96 C 225.03 939.61 210.19 943.20 195.16 941.81 C 190.68 940.75 186.54 938.63 182.48 936.52 C 180.69 935.67 178.61 936.08 176.71 935.98 C 177.05 939.40 179.65 941.78 181.77 944.23 C 192.74 956.69 206.85 967.89 223.73 970.29 C 235.10 972.33 246.61 970.08 257.97 969.04 C 262.83 968.76 267.75 969.44 272.59 968.57 C 282.26 966.94 292.01 968.65 301.68 969.33 C 307.21 970.11 311.13 974.50 315.44 977.65 C 322.95 983.95 331.15 989.44 338.27 996.20 C 327.77 991.37 316.99 986.13 305.24 985.65 C 299.19 984.49 292.99 984.87 286.95 985.86 C 280.68 986.14 274.94 988.96 268.76 989.71 C 262.58 990.40 256.50 992.95 250.21 991.77 C 245.52 990.76 240.74 989.76 236.45 987.54 C 232.71 985.93 229.04 983.64 224.81 983.88 C 224.90 985.11 225.09 986.34 225.36 987.56 C 228.65 992.23 233.09 995.90 237.33 999.66 C 242.62 1003.86 248.01 1008.11 254.30 1010.75 C 259.37 1013.31 264.87 1014.83 270.23 1016.63 C 274.90 1017.09 279.49 1018.00 284.10 1018.86 C 295.17 1019.28 306.30 1019.30 317.24 1017.29 C 327.88 1017.13 338.34 1014.49 349.00 1014.98 C 355.23 1014.85 361.73 1014.93 367.54 1017.46 C 373.35 1021.65 379.08 1025.99 385.21 1029.72 C 388.47 1031.46 391.48 1033.61 394.28 1036.03 C 390.25 1035.05 386.22 1033.79 382.03 1033.97 C 373.72 1034.13 365.39 1033.77 357.09 1034.12 C 347.51 1035.94 338.18 1038.69 329.02 1042.01 C 324.19 1043.90 318.95 1044.01 313.89 1044.83 C 308.06 1045.61 302.25 1044.46 296.52 1043.52 C 292.54 1042.89 288.93 1040.64 284.80 1040.89 C 285.12 1042.47 284.76 1044.59 286.53 1045.45 C 305.57 1060.00 327.75 1071.81 351.98 1073.98 C 356.32 1074.08 360.68 1074.00 365.03 1074.03 C 372.48 1074.10 379.59 1071.28 387.01 1070.98 C 391.22 1070.95 395.00 1068.87 399.06 1068.08 C 402.03 1067.46 404.98 1066.79 407.88 1065.88 C 413.73 1063.98 419.92 1063.84 425.97 1063.02 C 432.78 1062.92 440.25 1062.87 446.15 1066.74 C 456.17 1072.20 466.59 1076.86 476.54 1082.46 C 481.00 1084.64 485.48 1086.93 489.24 1090.24 C 480.02 1095.27 471.35 1101.43 464.17 1109.14 C 462.68 1110.57 462.19 1113.69 464.29 1114.82 C 467.85 1115.28 471.46 1114.86 475.04 1114.99 C 479.38 1115.01 483.61 1116.43 487.97 1116.02 C 490.39 1116.12 491.72 1113.72 493.15 1112.15 C 496.05 1107.99 499.05 1103.87 503.00 1100.63 C 506.95 1103.86 509.91 1108.03 512.85 1112.15 C 514.28 1113.72 515.60 1116.12 518.03 1116.02 C 523.73 1116.34 529.29 1114.42 535.01 1115.00 C 537.61 1114.67 541.06 1116.01 542.95 1113.67 C 543.22 1112.08 543.10 1110.29 541.80 1109.18 C 534.70 1101.36 525.86 1095.39 516.75 1090.18 C 523.09 1084.90 530.90 1081.99 538.04 1078.02 C 546.23 1073.45 554.84 1069.69 562.97 1065.02 C 573.00 1061.50 583.86 1063.23 594.10 1064.83 C 601.44 1066.89 608.91 1068.45 616.20 1070.70 C 621.53 1070.98 626.77 1071.94 632.00 1073.04 C 638.91 1074.56 646.02 1073.89 653.04 1074.01 C 677.65 1072.21 700.16 1060.15 719.47 1045.45 C 721.24 1044.60 720.86 1042.47 721.20 1040.89 C 716.22 1040.77 711.85 1043.60 706.93 1043.94 C 693.54 1046.74 679.74 1043.60 667.21 1038.76 C 663.20 1037.00 658.78 1036.59 654.60 1035.38 C 646.64 1032.86 638.19 1034.43 630.00 1033.98 C 624.51 1033.57 619.10 1034.61 613.66 1035.03 C 614.94 1033.49 616.43 1032.13 618.20 1031.19 C 624.07 1027.90 629.68 1024.12 634.97 1019.97 C 641.18 1014.38 650.22 1015.02 658.00 1014.98 C 667.08 1014.48 675.97 1016.85 685.02 1017.03 C 691.07 1017.11 696.92 1019.07 702.98 1019.03 C 707.99 1019.01 713.01 1018.98 718.03 1019.04 C 723.11 1019.20 727.95 1017.40 732.98 1016.96 C 748.01 1014.11 761.98 1006.57 772.86 995.83 C 776.15 992.33 781.40 989.28 781.18 983.88 C 775.11 983.74 770.21 987.89 764.62 989.58 C 759.04 991.15 753.20 992.96 747.38 991.61 C 740.81 990.05 734.00 989.61 727.58 987.43 C 723.14 986.01 718.46 985.91 713.90 985.18 C 707.30 984.28 700.77 985.82 694.22 986.31 C 684.95 988.26 676.25 992.17 667.73 996.20 C 671.49 992.42 675.86 989.31 680.00 985.97 C 686.31 981.34 692.11 976.03 698.54 971.57 C 702.65 968.52 707.98 969.28 712.75 968.66 C 721.11 967.27 729.62 968.00 737.96 969.01 C 747.04 968.56 756.02 969.88 765.02 970.89 C 775.55 971.58 786.51 970.77 796.16 966.19 C 806.34 961.81 814.94 954.49 822.76 946.77 C 825.68 943.71 829.52 940.58 829.19 935.90 C 827.62 936.07 825.94 935.78 824.50 936.51 C 820.22 938.79 815.77 941.08 810.95 941.91 C 804.26 942.09 797.51 942.35 790.89 941.26 C 777.39 939.78 763.82 938.16 750.23 939.25 C 743.21 940.44 736.29 942.25 729.78 945.18 C 735.71 939.27 742.32 934.10 748.46 928.41 C 752.99 924.96 756.54 919.76 762.31 918.30 C 766.26 917.82 770.29 918.06 774.23 917.36 C 787.42 918.65 800.74 917.71 814.00 918.02 C 823.55 918.70 832.96 915.56 841.43 911.39 C 847.99 907.15 854.20 902.12 858.79 895.73 C 862.11 891.19 866.95 886.98 867.22 880.97 C 861.34 879.82 857.13 884.65 851.74 885.85 C 845.28 889.13 837.94 887.76 831.00 887.99 C 825.25 887.89 819.43 888.48 813.76 887.29 C 809.82 886.46 805.90 887.63 801.99 887.95 C 795.82 888.32 790.38 891.59 784.87 894.07 C 790.45 886.35 798.06 880.42 803.83 872.88 C 806.87 869.28 809.32 864.72 813.95 862.96 C 821.97 859.57 830.80 862.02 839.11 860.22 C 847.44 860.14 855.62 858.36 863.93 857.83 C 867.91 857.17 871.67 855.57 875.54 854.44 C 884.10 850.61 890.76 843.48 895.53 835.53 C 898.63 830.27 902.18 824.99 903.22 818.85 C 900.38 818.74 897.79 819.84 895.60 821.55 C 890.99 825.07 885.37 827.05 879.64 827.68 C 869.03 828.42 858.43 829.28 847.89 830.75 C 843.26 831.20 839.22 833.67 834.85 835.05 C 836.37 832.57 838.19 830.30 840.07 828.09 C 842.88 824.77 844.77 820.83 847.37 817.36 C 849.38 814.75 851.01 811.45 854.33 810.29 C 862.20 806.00 871.30 805.27 880.03 804.14 C 886.02 804.33 891.53 801.61 896.49 798.52 C 902.88 794.83 907.79 789.13 912.40 783.48 C 915.18 778.91 919.07 774.44 919.15 768.81 C 912.38 768.92 908.42 775.89 901.87 776.87 C 898.62 777.16 895.35 776.82 892.11 777.20 C 885.79 778.16 878.96 777.85 873.34 781.35 C 871.97 782.36 870.38 782.91 868.74 783.22 C 870.74 778.57 873.69 774.39 875.61 769.69 C 876.42 768.23 876.65 765.97 878.64 765.69 C 883.59 764.36 888.64 763.30 893.74 762.67 C 899.38 761.98 904.62 759.65 910.01 758.00 C 918.16 755.38 924.71 748.86 928.01 741.04 C 930.22 735.88 932.29 730.40 932.03 724.69 C 928.14 725.19 925.86 728.68 922.79 730.71 C 918.42 733.43 913.61 735.39 908.61 736.60 C 904.01 737.92 898.99 738.18 894.89 740.88 C 891.13 742.74 888.56 746.23 884.98 748.35 C 887.77 741.40 890.41 734.36 892.04 727.04 C 892.32 724.17 895.11 722.62 897.37 721.35 C 906.43 716.77 916.86 714.51 924.64 707.61 C 930.15 702.62 931.81 694.97 933.03 687.96 C 933.63 685.64 932.49 681.73 929.45 683.24 C 926.29 687.14 922.86 691.02 918.22 693.18 C 913.59 695.10 908.48 695.77 904.02 698.08 C 901.21 700.26 898.89 702.99 896.12 705.21 C 898.05 699.43 897.90 693.36 898.28 687.39 C 905.17 677.84 918.52 674.62 923.23 663.30 C 924.07 658.96 925.79 654.24 923.86 649.96 C 922.64 649.98 921.43 650.01 920.23 650.04 C 915.58 655.25 908.71 657.87 904.35 663.37 C 902.04 666.21 900.56 669.62 898.17 672.41 C 897.96 667.02 897.75 661.60 898.14 656.22 C 899.32 653.88 901.76 652.40 903.20 650.18 C 906.35 645.07 907.96 638.83 906.04 632.97 C 905.36 623.72 897.48 617.51 895.22 608.81 C 894.86 606.31 895.11 603.77 894.79 601.27 C 894.10 599.67 891.91 599.50 890.78 600.69 C 887.64 603.34 885.67 607.03 883.48 610.44 C 879.42 616.67 875.99 623.54 875.02 630.98 C 874.12 638.30 876.67 645.92 881.78 651.23 C 883.57 653.12 885.91 654.39 887.70 656.31 C 889.42 659.31 889.02 662.95 889.72 666.25 C 888.56 665.06 887.42 663.87 886.32 662.65 C 880.01 654.53 868.79 651.10 864.79 641.02 C 864.13 641.02 862.79 641.00 862.12 641.00 C 860.46 645.47 860.92 650.32 861.06 655.00 C 861.20 660.25 864.09 664.79 866.92 669.02 C 872.91 676.46 880.40 682.48 887.88 688.34 C 888.01 691.37 887.04 694.31 886.64 697.29 C 884.39 694.90 882.56 692.09 879.90 690.13 C 874.97 686.35 869.27 683.58 864.76 679.26 C 862.54 676.52 861.27 673.16 859.63 670.08 C 858.11 670.05 856.60 670.02 855.11 670.02 C 855.05 676.94 854.69 683.90 855.21 690.81 C 857.27 697.05 860.76 702.96 865.93 707.12 C 871.24 712.05 878.01 716.23 880.98 723.06 C 879.96 728.67 877.41 733.89 875.86 739.37 C 874.15 736.60 873.01 733.51 871.14 730.86 C 867.91 727.41 863.77 724.90 860.84 721.16 C 858.33 717.93 855.72 714.63 854.38 710.72 C 853.75 707.43 853.34 704.10 852.76 700.81 C 851.66 700.93 850.57 701.11 849.51 701.37 C 845.47 705.41 844.32 711.21 842.46 716.40 C 841.43 723.58 841.38 731.42 845.12 737.90 C 849.72 748.16 859.27 755.52 862.67 766.38 C 864.00 769.86 861.41 773.00 859.97 775.97 C 856.73 781.46 854.30 787.51 850.17 792.42 C 850.03 790.27 850.00 788.13 850.02 785.99 C 850.63 776.76 845.60 768.08 839.30 761.70 C 836.63 758.66 833.96 755.54 832.08 751.94 C 830.19 747.46 829.93 742.51 829.84 737.71 C 827.69 738.31 825.08 738.69 823.87 740.83 C 821.56 744.92 819.31 749.08 817.53 753.43 C 815.48 761.64 815.33 770.37 817.53 778.57 C 821.80 788.29 829.12 796.20 835.16 804.81 C 836.85 807.51 837.87 811.16 836.15 814.10 C 833.32 819.40 829.10 823.76 825.68 828.66 C 823.31 832.01 821.20 835.65 817.97 838.27 C 819.05 831.98 819.43 825.54 818.79 819.19 C 815.03 808.81 806.68 800.46 804.61 789.40 C 802.35 783.44 807.17 777.89 806.02 771.84 C 804.37 772.13 802.28 771.58 801.16 773.13 C 793.57 781.67 787.56 791.85 785.13 803.10 C 783.64 811.90 783.30 821.02 785.28 829.79 C 787.79 837.61 793.61 843.78 796.72 851.32 C 798.42 855.11 798.48 859.55 797.56 863.54 C 792.91 869.18 787.97 874.62 782.77 879.77 C 776.59 886.37 770.93 893.59 763.84 899.23 C 764.56 894.93 767.32 891.35 768.13 887.10 C 769.78 880.56 771.85 873.91 770.88 867.09 C 769.52 859.20 767.55 851.43 765.30 843.76 C 764.42 837.47 761.48 831.00 763.73 824.67 C 764.69 822.18 765.08 819.53 765.12 816.88 C 763.56 816.97 761.99 816.93 760.48 817.32 C 750.65 828.43 740.85 840.46 737.35 855.22 C 736.79 861.50 735.16 867.82 736.76 874.10 C 736.86 886.16 743.93 896.89 744.27 908.91 C 744.82 912.13 744.62 915.45 743.61 918.58 C 738.26 925.22 731.17 930.15 725.27 936.27 C 723.10 938.51 720.57 940.36 718.03 942.17 C 720.88 936.52 723.55 930.76 724.40 924.43 C 727.39 914.11 725.84 903.31 724.00 892.94 C 722.82 887.31 723.16 881.53 722.44 875.85 C 722.47 872.12 723.01 868.25 725.00 865.02 C 726.34 862.84 727.11 860.39 727.17 857.84 C 722.13 857.37 718.92 861.63 715.40 864.46 C 704.32 874.30 694.66 886.80 691.53 901.56 C 690.19 905.22 689.75 909.11 689.93 913.00 C 689.46 923.15 693.51 932.84 693.13 942.99 C 694.49 949.28 693.88 955.84 691.96 961.94 C 690.40 966.41 686.53 969.18 682.89 971.87 C 677.07 976.10 672.10 981.46 665.82 985.07 C 668.67 980.06 672.09 975.33 673.74 969.74 C 676.16 964.48 676.19 958.66 676.03 953.00 C 676.34 944.83 674.88 936.74 673.24 928.78 C 672.04 922.63 674.40 916.65 675.77 910.76 C 677.05 905.54 681.71 901.41 681.08 895.73 C 673.71 897.40 668.02 902.80 661.94 906.95 C 656.14 910.67 651.35 915.69 646.69 920.72 C 641.90 925.67 638.99 932.08 636.51 938.42 C 633.45 952.40 635.45 966.79 636.22 980.90 C 637.39 989.71 637.72 998.89 635.65 1007.60 C 635.38 1007.86 634.86 1008.37 634.60 1008.63 C 625.13 1014.78 615.75 1021.09 606.32 1027.33 C 603.89 1028.83 601.70 1030.99 598.69 1031.21 C 600.39 1027.30 603.57 1024.33 605.67 1020.66 C 610.90 1011.91 613.16 1001.84 614.88 991.90 C 615.68 983.89 613.56 975.99 613.04 968.04 C 613.50 963.76 614.59 959.57 615.38 955.35 C 617.04 949.93 620.27 945.15 623.82 940.79 C 625.15 939.53 624.91 937.59 625.20 935.96 C 623.07 936.06 620.74 935.66 618.85 936.86 C 613.62 939.75 607.85 941.56 602.81 944.81 C 591.98 951.15 581.23 958.77 574.88 969.91 C 569.96 977.10 567.99 985.71 566.11 994.08 C 565.77 1006.39 566.17 1018.72 565.96 1031.04 C 565.21 1038.33 564.90 1045.89 561.57 1052.58 C 559.81 1054.26 557.65 1055.48 555.46 1056.51 C 539.47 1065.05 522.92 1072.48 506.83 1080.83 C 504.70 1082.08 502.05 1082.52 499.86 1081.15 C 482.20 1072.06 464.00 1064.00 446.65 1054.35 C 442.93 1052.47 442.78 1047.90 441.65 1044.39 C 438.62 1028.12 440.65 1011.51 439.88 995.09 C 437.98 986.39 436.32 977.36 431.12 969.91 C 424.78 958.77 414.00 951.18 403.19 944.81 C 398.15 941.57 392.38 939.75 387.15 936.87 C 385.25 935.66 382.92 936.06 380.80 935.96 C 381.10 937.34 380.81 939.01 381.75 940.21 C 385.83 945.47 390.05 951.12 391.14 957.87 C 391.67 961.24 392.74 964.56 392.91 967.99 C 392.14 973.63 391.76 979.32 391.01 984.97 C 390.28 991.55 392.44 997.88 393.67 1004.26 C 394.22 1009.25 396.91 1013.60 398.90 1018.12 C 401.06 1022.90 405.21 1026.44 407.25 1031.27 C 404.16 1030.00 401.31 1028.23 398.46 1026.50 C 391.17 1021.43 383.56 1016.83 376.28 1011.76 C 374.07 1010.04 370.31 1009.19 369.96 1006.00 C 368.47 998.03 368.61 989.75 369.68 981.75 C 370.43 969.38 371.91 956.95 370.56 944.55 C 369.92 937.00 366.23 930.09 362.05 923.92 C 356.57 917.43 350.61 911.21 343.46 906.55 C 337.62 902.46 332.04 897.34 324.92 895.73 C 324.28 901.41 328.94 905.55 330.21 910.77 C 331.79 917.17 334.26 923.79 332.44 930.44 C 329.90 941.07 329.57 952.05 330.15 962.93 C 331.80 970.96 335.85 978.19 340.19 985.06 C 336.26 982.68 332.61 979.85 329.21 976.77 C 325.16 973.13 320.47 970.25 316.57 966.46 C 312.27 960.24 311.22 952.06 312.68 944.75 C 313.24 940.47 312.77 936.10 313.78 931.87 C 315.75 921.71 317.77 910.84 314.24 900.79 C 310.60 884.36 298.89 871.17 286.26 860.72 C 284.30 858.68 281.62 857.75 278.83 857.84 C 278.52 863.08 283.29 866.77 283.17 871.97 C 283.82 882.18 282.27 892.38 280.39 902.41 C 278.60 916.06 281.72 930.02 287.79 942.27 C 285.56 940.48 283.27 938.76 281.23 936.75 C 275.62 931.03 269.25 926.11 263.74 920.29 C 261.64 918.43 261.69 915.43 261.38 912.87 C 261.89 908.05 261.79 903.07 263.47 898.46 C 265.13 893.92 266.08 889.16 267.58 884.58 C 269.07 880.11 268.89 875.35 269.73 870.76 C 270.59 865.84 268.94 860.98 268.78 856.08 C 265.57 841.00 255.57 828.65 245.52 817.44 C 244.07 816.79 242.41 817.04 240.88 816.88 C 240.52 822.09 243.99 826.73 243.00 831.99 C 241.83 838.82 240.39 845.61 238.29 852.23 C 237.20 858.50 234.55 864.55 234.92 871.01 C 234.86 876.85 236.81 882.42 237.95 888.09 C 238.69 892.05 241.53 895.24 242.17 899.26 C 237.85 896.16 234.63 891.84 230.76 888.23 C 224.22 880.46 216.83 873.50 210.22 865.79 C 206.90 862.90 207.93 858.04 208.20 854.18 C 210.91 845.34 217.89 838.58 220.72 829.79 C 222.69 821.02 222.36 811.90 220.86 803.09 C 218.32 791.34 211.86 780.85 203.87 772.00 C 202.57 771.99 201.27 771.98 199.98 771.98 C 199.33 776.51 201.37 780.66 202.05 785.03 C 201.42 795.24 195.25 803.75 190.36 812.36 C 189.13 814.84 187.45 817.23 187.08 820.04 C 186.69 826.13 186.92 832.27 188.02 838.28 C 183.36 834.36 180.82 828.67 176.88 824.12 C 174.05 820.21 170.44 816.59 169.03 811.87 C 168.36 805.96 173.36 801.83 176.37 797.39 C 181.90 789.53 189.15 781.85 189.75 771.76 C 191.46 760.62 187.72 749.52 181.71 740.26 C 180.40 738.56 178.12 738.30 176.21 737.71 C 175.88 742.49 175.61 747.42 173.93 751.95 C 171.90 755.74 169.07 759.03 166.22 762.21 C 161.48 766.88 158.25 772.92 156.21 779.20 C 155.67 783.58 156.23 788.01 155.81 792.41 C 154.56 791.24 153.53 789.87 152.77 788.34 C 149.81 782.62 146.35 777.17 143.65 771.33 C 142.02 768.23 143.76 764.78 145.00 761.88 C 149.74 752.92 157.73 745.96 161.44 736.40 C 165.65 727.88 164.62 717.62 160.95 709.10 C 159.59 705.56 157.86 700.48 153.24 700.81 C 152.57 704.31 152.30 707.91 151.36 711.36 C 148.58 718.03 143.60 723.51 137.92 727.86 C 133.92 730.61 132.55 735.41 130.14 739.37 C 128.82 735.51 127.64 731.60 126.19 727.79 C 125.59 725.61 124.20 723.03 125.91 721.00 C 129.63 715.44 135.18 711.50 139.93 706.90 C 145.27 702.95 148.76 697.04 150.80 690.81 C 151.25 684.61 151.02 678.35 150.92 672.14 C 150.93 669.70 148.08 669.98 146.39 669.96 C 144.78 673.10 143.46 676.48 141.24 679.26 C 136.53 683.71 130.59 686.56 125.53 690.57 C 123.09 692.42 121.41 695.05 119.35 697.29 C 118.95 694.31 117.99 691.37 118.12 688.35 C 121.81 684.93 126.24 682.39 129.75 678.76 C 136.24 672.70 143.15 665.89 144.76 656.78 C 145.13 651.53 145.64 646.05 143.89 640.99 C 143.21 641.00 141.84 641.01 141.16 641.02 C 138.61 646.84 133.78 651.14 128.59 654.60 C 123.79 657.67 120.05 662.02 116.26 666.21 C 116.98 662.93 116.58 659.30 118.30 656.31 C 120.79 653.80 124.04 652.06 126.04 649.05 C 128.77 645.89 129.84 641.77 130.77 637.80 C 132.29 628.74 128.29 619.90 123.66 612.36 C 120.99 608.66 119.10 604.38 115.84 601.14 C 114.70 599.67 112.70 600.12 111.10 599.84 Z" />
<path fill="#f20025" opacity="1.00" d=" M 189.25 840.25 C 189.80 840.79 189.80 840.79 189.25 840.25 Z" />
<path fill="#f20025" opacity="1.00" d=" M 816.25 840.25 C 816.78 840.79 816.78 840.79 816.25 840.25 Z" />
<path fill="#f20025" opacity="1.00" d=" M 395.27 1036.09 C 398.28 1034.54 395.43 1039.39 395.27 1036.09 Z" />
<path fill="#f20025" opacity="1.00" d=" M 609.27 1036.09 C 612.28 1034.55 609.42 1039.39 609.27 1036.09 Z" />
</g>
<g id="#ffcd33ff">
<path fill="#ffcd33" opacity="1.00" d=" M 111.10 599.84 C 112.70 600.12 114.70 599.67 115.84 601.14 C 119.10 604.38 120.99 608.66 123.66 612.36 C 128.29 619.90 132.29 628.74 130.77 637.80 C 129.84 641.77 128.77 645.89 126.04 649.05 C 124.04 652.06 120.79 653.80 118.30 656.31 C 116.58 659.30 116.98 662.93 116.26 666.21 C 120.05 662.02 123.79 657.67 128.59 654.60 C 133.78 651.14 138.61 646.84 141.16 641.02 C 141.84 641.01 143.21 641.00 143.89 640.99 C 145.64 646.05 145.13 651.53 144.76 656.78 C 143.15 665.89 136.24 672.70 129.75 678.76 C 126.24 682.39 121.81 684.93 118.12 688.35 C 117.99 691.37 118.95 694.31 119.35 697.29 C 121.41 695.05 123.09 692.42 125.53 690.57 C 130.59 686.56 136.53 683.71 141.24 679.26 C 143.46 676.48 144.78 673.10 146.39 669.96 C 148.08 669.98 150.93 669.70 150.92 672.14 C 151.02 678.35 151.25 684.61 150.80 690.81 C 148.76 697.04 145.27 702.95 139.93 706.90 C 135.18 711.50 129.63 715.44 125.91 721.00 C 124.20 723.03 125.59 725.61 126.19 727.79 C 127.64 731.60 128.82 735.51 130.14 739.37 C 132.55 735.41 133.92 730.61 137.92 727.86 C 143.60 723.51 148.58 718.03 151.36 711.36 C 152.30 707.91 152.57 704.31 153.24 700.81 C 157.86 700.48 159.59 705.56 160.95 709.10 C 164.62 717.62 165.65 727.88 161.44 736.40 C 157.73 745.96 149.74 752.92 145.00 761.88 C 143.76 764.78 142.02 768.23 143.65 771.33 C 146.35 777.17 149.81 782.62 152.77 788.34 C 153.53 789.87 154.56 791.24 155.81 792.41 C 156.23 788.01 155.67 783.58 156.21 779.20 C 158.25 772.92 161.48 766.88 166.22 762.21 C 169.07 759.03 171.90 755.74 173.93 751.95 C 175.61 747.42 175.88 742.49 176.21 737.71 C 178.12 738.30 180.40 738.56 181.71 740.26 C 187.72 749.52 191.46 760.62 189.75 771.76 C 189.15 781.85 181.90 789.53 176.37 797.39 C 173.36 801.83 168.36 805.96 169.03 811.87 C 170.44 816.59 174.05 820.21 176.88 824.12 C 180.82 828.67 183.36 834.36 188.02 838.28 C 186.92 832.27 186.69 826.13 187.08 820.04 C 187.45 817.23 189.13 814.84 190.36 812.36 C 195.25 803.75 201.42 795.24 202.05 785.03 C 201.37 780.66 199.33 776.51 199.98 771.98 C 201.27 771.98 202.57 771.99 203.87 772.00 C 211.86 780.85 218.32 791.34 220.86 803.09 C 222.36 811.90 222.69 821.02 220.72 829.79 C 217.89 838.58 210.91 845.34 208.20 854.18 C 207.93 858.04 206.90 862.90 210.22 865.79 C 216.83 873.50 224.22 880.46 230.76 888.23 C 234.63 891.84 237.85 896.16 242.17 899.26 C 241.53 895.24 238.69 892.05 237.95 888.09 C 236.81 882.42 234.86 876.85 234.92 871.01 C 234.55 864.55 237.20 858.50 238.29 852.23 C 240.39 845.61 241.83 838.82 243.00 831.99 C 243.99 826.73 240.52 822.09 240.88 816.88 C 242.41 817.04 244.07 816.79 245.52 817.44 C 255.57 828.65 265.57 841.00 268.78 856.08 C 268.94 860.98 270.59 865.84 269.73 870.76 C 268.89 875.35 269.07 880.11 267.58 884.58 C 266.08 889.16 265.13 893.92 263.47 898.46 C 261.79 903.07 261.89 908.05 261.38 912.87 C 261.69 915.43 261.64 918.43 263.74 920.29 C 269.25 926.11 275.62 931.03 281.23 936.75 C 283.27 938.76 285.56 940.48 287.79 942.27 C 281.72 930.02 278.60 916.06 280.39 902.41 C 282.27 892.38 283.82 882.18 283.17 871.97 C 283.29 866.77 278.52 863.08 278.83 857.84 C 281.62 857.75 284.30 858.68 286.26 860.72 C 298.89 871.17 310.60 884.36 314.24 900.79 C 317.77 910.84 315.75 921.71 313.78 931.87 C 312.77 936.10 313.24 940.47 312.68 944.75 C 311.22 952.06 312.27 960.24 316.57 966.46 C 320.47 970.25 325.16 973.13 329.21 976.77 C 332.61 979.85 336.26 982.68 340.19 985.06 C 335.85 978.19 331.80 970.96 330.15 962.93 C 329.57 952.05 329.90 941.07 332.44 930.44 C 334.26 923.79 331.79 917.17 330.21 910.77 C 328.94 905.55 324.28 901.41 324.92 895.73 C 332.04 897.34 337.62 902.46 343.46 906.55 C 350.61 911.21 356.57 917.43 362.05 923.92 C 366.23 930.09 369.92 937.00 370.56 944.55 C 371.91 956.95 370.43 969.38 369.68 981.75 C 368.61 989.75 368.47 998.03 369.96 1006.00 C 370.31 1009.19 374.07 1010.04 376.28 1011.76 C 383.56 1016.83 391.17 1021.43 398.46 1026.50 C 401.31 1028.23 404.16 1030.00 407.25 1031.27 C 405.21 1026.44 401.06 1022.90 398.90 1018.12 C 396.91 1013.60 394.22 1009.25 393.67 1004.26 C 392.44 997.88 390.28 991.55 391.01 984.97 C 391.76 979.32 392.14 973.63 392.91 967.99 C 392.74 964.56 391.67 961.24 391.14 957.87 C 390.05 951.12 385.83 945.47 381.75 940.21 C 380.81 939.01 381.10 937.34 380.80 935.96 C 382.92 936.06 385.25 935.66 387.15 936.87 C 392.38 939.75 398.15 941.57 403.19 944.81 C 414.00 951.18 424.78 958.77 431.12 969.91 C 436.32 977.36 437.98 986.39 439.88 995.09 C 440.65 1011.51 438.62 1028.12 441.65 1044.39 C 442.78 1047.90 442.93 1052.47 446.65 1054.35 C 464.00 1064.00 482.20 1072.06 499.86 1081.15 C 502.05 1082.52 504.70 1082.08 506.83 1080.83 C 522.92 1072.48 539.47 1065.05 555.46 1056.51 C 557.65 1055.48 559.81 1054.26 561.57 1052.58 C 564.90 1045.89 565.21 1038.33 565.96 1031.04 C 566.17 1018.72 565.77 1006.39 566.11 994.08 C 567.99 985.71 569.96 977.10 574.88 969.91 C 581.23 958.77 591.98 951.15 602.81 944.81 C 607.85 941.56 613.62 939.75 618.85 936.86 C 620.74 935.66 623.07 936.06 625.20 935.96 C 624.91 937.59 625.15 939.53 623.82 940.79 C 620.27 945.15 617.04 949.93 615.38 955.35 C 614.59 959.57 613.50 963.76 613.04 968.04 C 613.56 975.99 615.68 983.89 614.88 991.90 C 613.16 1001.84 610.90 1011.91 605.67 1020.66 C 603.57 1024.33 600.39 1027.30 598.69 1031.21 C 601.70 1030.99 603.89 1028.83 606.32 1027.33 C 615.75 1021.09 625.13 1014.78 634.60 1008.63 C 634.86 1008.37 635.38 1007.86 635.65 1007.60 C 637.72 998.89 637.39 989.71 636.22 980.90 C 635.45 966.79 633.45 952.40 636.51 938.42 C 638.99 932.08 641.90 925.67 646.69 920.72 C 651.35 915.69 656.14 910.67 661.94 906.95 C 668.02 902.80 673.71 897.40 681.08 895.73 C 681.71 901.41 677.05 905.54 675.77 910.76 C 674.40 916.65 672.04 922.63 673.24 928.78 C 674.88 936.74 676.34 944.83 676.03 953.00 C 676.19 958.66 676.16 964.48 673.74 969.74 C 672.09 975.33 668.67 980.06 665.82 985.07 C 672.10 981.46 677.07 976.10 682.89 971.87 C 686.53 969.18 690.40 966.41 691.96 961.94 C 693.88 955.84 694.49 949.28 693.13 942.99 C 693.51 932.84 689.46 923.15 689.93 913.00 C 689.75 909.11 690.19 905.22 691.53 901.56 C 694.66 886.80 704.32 874.30 715.40 864.46 C 718.92 861.63 722.13 857.37 727.17 857.84 C 727.11 860.39 726.34 862.84 725.00 865.02 C 723.01 868.25 722.47 872.12 722.44 875.85 C 723.16 881.53 722.82 887.31 724.00 892.94 C 725.84 903.31 727.39 914.11 724.40 924.43 C 723.55 930.76 720.88 936.52 718.03 942.17 C 720.57 940.36 723.10 938.51 725.27 936.27 C 731.17 930.15 738.26 925.22 743.61 918.58 C 744.62 915.45 744.82 912.13 744.27 908.91 C 743.93 896.89 736.86 886.16 736.76 874.10 C 735.16 867.82 736.79 861.50 737.35 855.22 C 740.85 840.46 750.65 828.43 760.48 817.32 C 761.99 816.93 763.56 816.97 765.12 816.88 C 765.08 819.53 764.69 822.18 763.73 824.67 C 761.48 831.00 764.42 837.47 765.30 843.76 C 767.55 851.43 769.52 859.20 770.88 867.09 C 771.85 873.91 769.78 880.56 768.13 887.10 C 767.32 891.35 764.56 894.93 763.84 899.23 C 770.93 893.59 776.59 886.37 782.77 879.77 C 787.97 874.62 792.91 869.18 797.56 863.54 C 798.48 859.55 798.42 855.11 796.72 851.32 C 793.61 843.78 787.79 837.61 785.28 829.79 C 783.30 821.02 783.64 811.90 785.13 803.10 C 787.56 791.85 793.57 781.67 801.16 773.13 C 802.28 771.58 804.37 772.13 806.02 771.84 C 807.17 777.89 802.35 783.44 804.61 789.40 C 806.68 800.46 815.03 808.81 818.79 819.19 C 819.43 825.54 819.05 831.98 817.97 838.27 C 821.20 835.65 823.31 832.01 825.68 828.66 C 829.10 823.76 833.32 819.40 836.15 814.10 C 837.87 811.16 836.85 807.51 835.16 804.81 C 829.12 796.20 821.80 788.29 817.53 778.57 C 815.33 770.37 815.48 761.64 817.53 753.43 C 819.31 749.08 821.56 744.92 823.87 740.83 C 825.08 738.69 827.69 738.31 829.84 737.71 C 829.93 742.51 830.19 747.46 832.08 751.94 C 833.96 755.54 836.63 758.66 839.30 761.70 C 845.60 768.08 850.63 776.76 850.02 785.99 C 850.00 788.13 850.03 790.27 850.17 792.42 C 854.30 787.51 856.73 781.46 859.97 775.97 C 861.41 773.00 864.00 769.86 862.67 766.38 C 859.27 755.52 849.72 748.16 845.12 737.90 C 841.38 731.42 841.43 723.58 842.46 716.40 C 844.32 711.21 845.47 705.41 849.51 701.37 C 850.57 701.11 851.66 700.93 852.76 700.81 C 853.34 704.10 853.75 707.43 854.38 710.72 C 855.72 714.63 858.33 717.93 860.84 721.16 C 863.77 724.90 867.91 727.41 871.14 730.86 C 873.01 733.51 874.15 736.60 875.86 739.37 C 877.41 733.89 879.96 728.67 880.98 723.06 C 878.01 716.23 871.24 712.05 865.93 707.12 C 860.76 702.96 857.27 697.05 855.21 690.81 C 854.69 683.90 855.05 676.94 855.11 670.02 C 856.60 670.02 858.11 670.05 859.63 670.08 C 861.27 673.16 862.54 676.52 864.76 679.26 C 869.27 683.58 874.97 686.35 879.90 690.13 C 882.56 692.09 884.39 694.90 886.64 697.29 C 887.04 694.31 888.01 691.37 887.88 688.34 C 880.40 682.48 872.91 676.46 866.92 669.02 C 864.09 664.79 861.20 660.25 861.06 655.00 C 860.92 650.32 860.46 645.47 862.12 641.00 C 862.79 641.00 864.13 641.02 864.79 641.02 C 868.79 651.10 880.01 654.53 886.32 662.65 C 887.42 663.87 888.56 665.06 889.72 666.25 C 889.02 662.95 889.42 659.31 887.70 656.31 C 885.91 654.39 883.57 653.12 881.78 651.23 C 876.67 645.92 874.12 638.30 875.02 630.98 C 875.99 623.54 879.42 616.67 883.48 610.44 C 885.67 607.03 887.64 603.34 890.78 600.69 C 891.91 599.50 894.10 599.67 894.79 601.27 C 895.11 603.77 894.86 606.31 895.22 608.81 C 897.48 617.51 905.36 623.72 906.04 632.97 C 907.96 638.83 906.35 645.07 903.20 650.18 C 901.76 652.40 899.32 653.88 898.14 656.22 C 897.75 661.60 897.96 667.02 898.17 672.41 C 900.56 669.62 902.04 666.21 904.35 663.37 C 908.71 657.87 915.58 655.25 920.23 650.04 C 921.43 650.01 922.64 649.98 923.86 649.96 C 925.79 654.24 924.07 658.96 923.23 663.30 C 918.52 674.62 905.17 677.84 898.28 687.39 C 897.90 693.36 898.05 699.43 896.12 705.21 C 898.89 702.99 901.21 700.26 904.02 698.08 C 908.48 695.77 913.59 695.10 918.22 693.18 C 922.86 691.02 926.29 687.14 929.45 683.24 C 932.49 681.73 933.63 685.64 933.03 687.96 C 931.81 694.97 930.15 702.62 924.64 707.61 C 916.86 714.51 906.43 716.77 897.37 721.35 C 895.11 722.62 892.32 724.17 892.04 727.04 C 890.41 734.36 887.77 741.40 884.98 748.35 C 888.56 746.23 891.13 742.74 894.89 740.88 C 898.99 738.18 904.01 737.92 908.61 736.60 C 913.61 735.39 918.42 733.43 922.79 730.71 C 925.86 728.68 928.14 725.19 932.03 724.69 C 932.29 730.40 930.22 735.88 928.01 741.04 C 924.71 748.86 918.16 755.38 910.01 758.00 C 904.62 759.65 899.38 761.98 893.74 762.67 C 888.64 763.30 883.59 764.36 878.64 765.69 C 876.65 765.97 876.42 768.23 875.61 769.69 C 873.69 774.39 870.74 778.57 868.74 783.22 C 870.38 782.91 871.97 782.36 873.34 781.35 C 878.96 777.85 885.79 778.16 892.11 777.20 C 895.35 776.82 898.62 777.16 901.87 776.87 C 908.42 775.89 912.38 768.92 919.15 768.81 C 919.07 774.44 915.18 778.91 912.40 783.48 C 907.79 789.13 902.88 794.83 896.49 798.52 C 891.53 801.61 886.02 804.33 880.03 804.14 C 871.30 805.27 862.20 806.00 854.33 810.29 C 851.01 811.45 849.38 814.75 847.37 817.36 C 844.77 820.83 842.88 824.77 840.07 828.09 C 838.19 830.30 836.37 832.57 834.85 835.05 C 839.22 833.67 843.26 831.20 847.89 830.75 C 858.43 829.28 869.03 828.42 879.64 827.68 C 885.37 827.05 890.99 825.07 895.60 821.55 C 897.79 819.84 900.38 818.74 903.22 818.85 C 902.18 824.99 898.63 830.27 895.53 835.53 C 890.76 843.48 884.10 850.61 875.54 854.44 C 871.67 855.57 867.91 857.17 863.93 857.83 C 855.62 858.36 847.44 860.14 839.11 860.22 C 830.80 862.02 821.97 859.57 813.95 862.96 C 809.32 864.72 806.87 869.28 803.83 872.88 C 798.06 880.42 790.45 886.35 784.87 894.07 C 790.38 891.59 795.82 888.32 801.99 887.95 C 805.90 887.63 809.82 886.46 813.76 887.29 C 819.43 888.48 825.25 887.89 831.00 887.99 C 837.94 887.76 845.28 889.13 851.74 885.85 C 857.13 884.65 861.34 879.82 867.22 880.97 C 866.95 886.98 862.11 891.19 858.79 895.73 C 854.20 902.12 847.99 907.15 841.43 911.39 C 832.96 915.56 823.55 918.70 814.00 918.02 C 800.74 917.71 787.42 918.65 774.23 917.36 C 770.29 918.06 766.26 917.82 762.31 918.30 C 756.54 919.76 752.99 924.96 748.46 928.41 C 742.32 934.10 735.71 939.27 729.78 945.18 C 736.29 942.25 743.21 940.44 750.23 939.25 C 763.82 938.16 777.39 939.78 790.89 941.26 C 797.51 942.35 804.26 942.09 810.95 941.91 C 815.77 941.08 820.22 938.79 824.50 936.51 C 825.94 935.78 827.62 936.07 829.19 935.90 C 829.52 940.58 825.68 943.71 822.76 946.77 C 814.94 954.49 806.34 961.81 796.16 966.19 C 786.51 970.77 775.55 971.58 765.02 970.89 C 756.02 969.88 747.04 968.56 737.96 969.01 C 729.62 968.00 721.11 967.27 712.75 968.66 C 707.98 969.28 702.65 968.52 698.54 971.57 C 692.11 976.03 686.31 981.34 680.00 985.97 C 675.86 989.31 671.49 992.42 667.73 996.20 C 676.25 992.17 684.95 988.26 694.22 986.31 C 700.77 985.82 707.30 984.28 713.90 985.18 C 718.46 985.91 723.14 986.01 727.58 987.43 C 734.00 989.61 740.81 990.05 747.38 991.61 C 753.20 992.96 759.04 991.15 764.62 989.58 C 770.21 987.89 775.11 983.74 781.18 983.88 C 781.40 989.28 776.15 992.33 772.86 995.83 C 761.98 1006.57 748.01 1014.11 732.98 1016.96 C 727.95 1017.40 723.11 1019.20 718.03 1019.04 C 713.01 1018.98 707.99 1019.01 702.98 1019.03 C 696.92 1019.07 691.07 1017.11 685.02 1017.03 C 675.97 1016.85 667.08 1014.48 658.00 1014.98 C 650.22 1015.02 641.18 1014.38 634.97 1019.97 C 629.68 1024.12 624.07 1027.90 618.20 1031.19 C 616.43 1032.13 614.94 1033.49 613.66 1035.03 C 619.10 1034.61 624.51 1033.57 630.00 1033.98 C 638.19 1034.43 646.64 1032.86 654.60 1035.38 C 658.78 1036.59 663.20 1037.00 667.21 1038.76 C 679.74 1043.60 693.54 1046.74 706.93 1043.94 C 711.85 1043.60 716.22 1040.77 721.20 1040.89 C 720.86 1042.47 721.24 1044.60 719.47 1045.45 C 700.16 1060.15 677.65 1072.21 653.04 1074.01 C 646.02 1073.89 638.91 1074.56 632.00 1073.04 C 626.77 1071.94 621.53 1070.98 616.20 1070.70 C 608.91 1068.45 601.44 1066.89 594.10 1064.83 C 583.86 1063.23 573.00 1061.50 562.97 1065.02 C 554.84 1069.69 546.23 1073.45 538.04 1078.02 C 530.90 1081.99 523.09 1084.90 516.75 1090.18 C 525.86 1095.39 534.70 1101.36 541.80 1109.18 C 543.10 1110.29 543.22 1112.08 542.95 1113.67 C 541.06 1116.01 537.61 1114.67 535.01 1115.00 C 529.29 1114.42 523.73 1116.34 518.03 1116.02 C 515.60 1116.12 514.28 1113.72 512.85 1112.15 C 509.91 1108.03 506.95 1103.86 503.00 1100.63 C 499.05 1103.87 496.05 1107.99 493.15 1112.15 C 491.72 1113.72 490.39 1116.12 487.97 1116.02 C 483.61 1116.43 479.38 1115.01 475.04 1114.99 C 471.46 1114.86 467.85 1115.28 464.29 1114.82 C 462.19 1113.69 462.68 1110.57 464.17 1109.14 C 471.35 1101.43 480.02 1095.27 489.24 1090.24 C 485.48 1086.93 481.00 1084.64 476.54 1082.46 C 466.59 1076.86 456.17 1072.20 446.15 1066.74 C 440.25 1062.87 432.78 1062.92 425.97 1063.02 C 419.92 1063.84 413.73 1063.98 407.88 1065.88 C 404.98 1066.79 402.03 1067.46 399.06 1068.08 C 395.00 1068.87 391.22 1070.95 387.01 1070.98 C 379.59 1071.28 372.48 1074.10 365.03 1074.03 C 360.68 1074.00 356.32 1074.08 351.98 1073.98 C 327.75 1071.81 305.57 1060.00 286.53 1045.45 C 284.76 1044.59 285.12 1042.47 284.80 1040.89 C 288.93 1040.64 292.54 1042.89 296.52 1043.52 C 302.25 1044.46 308.06 1045.61 313.89 1044.83 C 318.95 1044.01 324.19 1043.90 329.02 1042.01 C 338.18 1038.69 347.51 1035.94 357.09 1034.12 C 365.39 1033.77 373.72 1034.13 382.03 1033.97 C 386.22 1033.79 390.25 1035.05 394.28 1036.03 C 391.48 1033.61 388.47 1031.46 385.21 1029.72 C 379.08 1025.99 373.35 1021.65 367.54 1017.46 C 361.73 1014.93 355.23 1014.85 349.00 1014.98 C 338.34 1014.49 327.88 1017.13 317.24 1017.29 C 306.30 1019.30 295.17 1019.28 284.10 1018.86 C 279.49 1018.00 274.90 1017.09 270.23 1016.63 C 264.87 1014.83 259.37 1013.31 254.30 1010.75 C 248.01 1008.11 242.62 1003.86 237.33 999.66 C 233.09 995.90 228.65 992.23 225.36 987.56 C 225.09 986.34 224.90 985.11 224.81 983.88 C 229.04 983.64 232.71 985.93 236.45 987.54 C 240.74 989.76 245.52 990.76 250.21 991.77 C 256.50 992.95 262.58 990.40 268.76 989.71 C 274.94 988.96 280.68 986.14 286.95 985.86 C 292.99 984.87 299.19 984.49 305.24 985.65 C 316.99 986.13 327.77 991.37 338.27 996.20 C 331.15 989.44 322.95 983.95 315.44 977.65 C 311.13 974.50 307.21 970.11 301.68 969.33 C 292.01 968.65 282.26 966.94 272.59 968.57 C 267.75 969.44 262.83 968.76 257.97 969.04 C 246.61 970.08 235.10 972.33 223.73 970.29 C 206.85 967.89 192.74 956.69 181.77 944.23 C 179.65 941.78 177.05 939.40 176.71 935.98 C 178.61 936.08 180.69 935.67 182.48 936.52 C 186.54 938.63 190.68 940.75 195.16 941.81 C 210.19 943.20 225.03 939.61 239.99 938.96 C 246.97 939.24 254.10 938.25 260.94 940.06 C 265.07 941.12 269.44 941.66 273.21 943.79 C 274.47 944.49 275.87 944.86 277.27 945.19 C 268.38 936.89 259.21 928.89 250.03 920.93 C 245.00 916.55 238.00 918.59 232.00 917.32 C 223.39 918.57 214.67 917.79 206.00 918.00 C 198.74 917.82 191.45 918.37 184.21 917.77 C 177.81 916.29 171.37 914.56 165.57 911.40 C 154.93 904.96 146.61 895.28 140.31 884.67 C 140.07 883.42 139.91 882.17 139.83 880.92 C 143.84 880.43 147.37 882.29 150.76 884.16 C 155.69 885.90 160.57 888.57 165.98 888.05 C 175.67 887.64 185.46 888.83 195.05 887.07 C 198.07 886.87 201.00 887.81 204.00 887.92 C 210.62 887.90 216.39 891.52 222.20 894.22 C 218.63 889.69 214.18 885.96 210.50 881.54 C 206.23 876.45 202.07 871.28 197.76 866.24 C 192.71 861.00 184.81 860.69 178.00 861.02 C 172.61 861.44 167.35 859.89 161.97 859.97 C 156.59 859.86 151.36 858.34 145.99 858.07 C 140.68 857.96 135.74 855.74 130.74 854.20 C 121.37 849.71 114.51 841.31 109.60 832.36 C 107.53 828.48 104.10 824.85 104.04 820.27 C 105.34 818.22 108.21 818.75 109.63 820.36 C 115.73 825.75 124.01 827.85 131.99 828.01 C 141.59 829.02 151.26 829.49 160.77 831.22 C 164.35 832.14 167.62 833.93 171.14 835.05 C 168.94 831.31 165.80 828.26 163.39 824.67 C 160.58 820.21 157.81 815.64 154.23 811.77 C 144.18 805.32 131.85 804.96 120.37 803.58 C 108.90 800.18 99.61 791.89 92.77 782.32 C 90.00 777.86 86.35 773.28 86.94 767.70 C 93.30 769.36 97.44 775.65 104.03 776.88 C 111.94 777.05 119.96 777.35 127.67 779.24 C 131.20 779.81 133.71 782.75 137.26 783.23 C 134.51 777.52 131.29 772.04 128.71 766.26 C 120.16 762.90 110.60 763.48 102.08 760.00 C 94.91 758.02 87.61 755.09 82.90 749.05 C 77.53 742.17 74.07 733.44 73.97 724.69 C 77.62 725.11 79.80 728.33 82.63 730.31 C 89.44 734.98 97.63 736.78 105.58 738.52 C 111.76 739.93 116.08 744.81 120.99 748.43 C 117.87 740.98 115.34 733.29 113.54 725.42 C 111.55 722.26 107.78 721.02 104.59 719.41 C 96.37 716.07 87.52 713.27 80.87 707.13 C 76.25 702.83 74.81 696.50 73.36 690.62 C 72.62 687.96 72.10 681.65 76.55 683.24 C 78.94 685.90 81.02 688.93 84.04 690.94 C 89.25 695.00 96.26 695.03 101.95 698.08 C 104.74 700.28 107.11 702.97 109.88 705.22 C 107.95 699.43 108.10 693.36 107.72 687.39 C 100.83 677.84 87.47 674.63 82.78 663.30 C 81.92 658.96 80.20 654.24 82.14 649.96 C 83.35 649.98 84.56 650.01 85.77 650.04 C 89.85 654.49 95.35 657.20 99.74 661.28 C 103.20 664.40 104.78 668.94 107.83 672.40 C 108.03 667.01 108.25 661.59 107.86 656.22 C 106.68 653.87 104.23 652.40 102.79 650.19 C 99.64 645.08 98.07 638.84 99.94 632.97 C 100.57 623.41 109.14 617.12 110.85 607.94 C 111.14 605.24 111.05 602.53 111.10 599.84 M 189.25 840.25 C 189.80 840.79 189.80 840.79 189.25 840.25 M 816.25 840.25 C 816.78 840.79 816.78 840.79 816.25 840.25 M 395.27 1036.09 C 395.43 1039.39 398.28 1034.54 395.27 1036.09 M 609.27 1036.09 C 609.42 1039.39 612.28 1034.55 609.27 1036.09 Z" />
</g>
</svg>
